# xmcd
#
# Track frame offsets: 
#        182
#        15915
#        29357
#        42180
#        56807
#        73042
#        88522
#        103400
#        119302
#        139115
#
# Disc length: 2085 seconds
#
# Revision: 2
# Processed by: cddbd v1.4PL0 Copyright (c) Steve Scherf et al.
# Submitted via: ExactAudioCopy v0.90b2
#
DISCID=8508230a
DTITLE=Charly McClain - Charly McClain
DYEAR=1900
DGENRE=Country
TTITLE0=Sometimes She Feels Like A Man
TTITLE1=Down The Road
TTITLE2=You Got The Job
TTITLE3=One In Your Heart One On Your Mind
TTITLE4=Let Your Woman Take Care Of You
TTITLE5=Cry And Try Again
TTITLE6=Haunt Your Heart
TTITLE7=What You See Is Me In Love
TTITLE8=Show Me Your Love
TTITLE9=You Can Be You (And Be Mine Too)
EXTD=
EXTT0=
EXTT1=
EXTT2=
EXTT3=
EXTT4=
EXTT5=
EXTT6=
EXTT7=
EXTT8=
EXTT9=
PLAYORDER=
